<?xml version="1.0" encoding="UTF-8"?>
<!DOCTYPE svg PUBLIC "-//W3C//DTD SVG 1.1//EN" "http://www.w3.org/Graphics/SVG/1.1/DTD/svg11.dtd">
<!-- Creator: CorelDRAW -->
<svg xmlns="http://www.w3.org/2000/svg" xml:space="preserve" width="2048px" height="2048px" style="shape-rendering:geometricPrecision; text-rendering:geometricPrecision; image-rendering:optimizeQuality; fill-rule:evenodd; clip-rule:evenodd"
viewBox="0 0 2048 2048"
 xmlns:xlink="http://www.w3.org/1999/xlink">
 <defs>
  <style type="text/css">
   <![CDATA[
    .fil0 {fill:none}
    .fil1 {fill:#212121;fill-rule:nonzero}
   ]]>
  </style>
 </defs>
 <g id="Layer_x0020_1">
  <metadata id="CorelCorpID_0Corel-Layer"/>
  <rect class="fil0" width="2048" height="2048"/>
  <g id="_344232616">
   <rect id="_445074312" class="fil0" x="254.41" y="255.996" width="1536" height="1536"/>
   <path id="_344238232" class="fil1" d="M1348 881.795c46.3926,21.7571 83.8949,32.6398 122.348,32.6398 39.5103,0 81.6107,-11.2937 136.658,-33.8764 -13.8343,-32.8359 -6.14764,-51.3981 4.00985,-75.9107 5.93859,-14.3327 13.1268,-31.6807 13.1268,-60.6733 0,-41.1768 -16.3158,-78.4678 -42.7654,-105.632 -26.4059,-27.1146 -62.8666,-44.2016 -103.22,-45.0402l0 0.0897638 -0.37441 0 0 -0.0897638c-40.3583,0.838583 -76.819,17.9221 -103.228,45.0402 -26.4496,27.1618 -42.7677,64.4552 -42.7677,105.632 0,28.4351 7.05001,45.8433 12.9,60.2859 10.1291,25.004 17.8016,43.9666 3.31299,77.5347zm334.857 214.611c-1.22008,-0.654331 -15.1075,-5.38229 -31.9937,-11.0433 0.344882,0.960237 0.679134,1.93228 1.00158,2.91851 6.31772,19.3169 8.20276,43.1906 0.151181,71.6682l-12.5563 44.4012 -29.8914 -35.0433c-0.0448819,-0.0555119 -12.2752,-14.5595 -26.2063,-22.7941 -9.92245,13.8768 -21.3732,26.6504 -33.1087,38.0705 -23.8063,23.1732 -48.9485,41.041 -64.3583,50.9918l-13.3122 3.95551c-14.6492,0 -34.5378,-16.1268 -53.6741,-36.9803 -6.53623,-7.12323 -13.3099,-14.9882 -19.8354,-22.8886 -3.52914,-11.2807 -7.88741,-22.2579 -13.8437,-32.5996l-2.0374 -3.5374c-22.6087,-39.254 -81.7182,-67.7752 -136.665,-88.6548 1.12559,-0.644882 2.25709,-1.27087 3.39803,-1.87205l-0.00236221 -0.00354331c7.0689,-3.78425 68.6375,-24.1736 94.0064,-32.5748 6.96733,-2.30788 8.1319,-2.58544 9.89646,-3.22677l41.0788 -14.9232 -8.47205 42.8032c-0.237402,1.20591 -0.356693,1.97244 -0.405118,2.51339 -0.0496063,0.548032 -0.162992,2.46614 -0.283465,4.63111l-0.676772 11.9185 -9.83859 6.8941c-5.6315,3.9437 -17.8559,14.1343 -23.8666,31.2815 8.61497,-4.75394 18.0177,-8.49804 27.6921,-9.92245l16.5059 -2.42953 8.38347 14.5843c5.34213,9.29292 29.263,40.6772 51.2398,64.63 7.07835,7.7126 11.7461,14.2866 14.5146,17.9232 13.1622,-9.15473 30.1051,-22.1398 46.2142,-37.8213 13.741,-13.3736 26.7933,-28.5851 36.0756,-44.7319l8.38347 -14.5843 16.5059 2.42953c9.67324,1.42441 19.076,5.16733 27.6921,9.92127 -6.01063,-17.1461 -18.2339,-27.3366 -23.8666,-31.2803l-9.83859 -6.8941 -0.675591 -11.9185c-0.122835,-2.17441 -0.233858,-4.09961 -0.283465,-4.63111 -0.0496063,-0.53504 -0.166536,-1.30158 -0.405118,-2.51339l-8.47442 -42.8032 41.0788 14.9232c1.76693,0.643701 2.92914,0.918898 9.89646,3.22677 25.3689,8.40119 86.9375,28.7906 94.0076,32.5748l-0.00236221 0.00354331c9.19371,4.84489 17.8606,11.1496 25.8366,18.5693 23.2418,21.6213 42.2386,54.0473 51.7654,87.7016 9.90473,34.9985 9.81379,72.1902 -5.74725,101.861 -3.94488,7.52008 -8.75434,14.4437 -14.5004,20.6185l-0.194882 0.0968505c-10.0984,10.6772 -21.2965,18.215 -33.613,23.1142 -12.2303,4.86142 -25.0477,7.03938 -38.5607,7.03938l-212.884 0 -0.140551 0 -0.140551 0 -44.2406 0 0 -2.46142 -3.40748 -16.8685 -1.22953 -2.92914c-3.62126,-8.63268 -6.58347,-17.8146 -9.18898,-27.1335l58.0666 0 0.140551 0 0.140551 0 212.884 0c7.73741,0 14.5654,-1.0441 20.4248,-3.37441 5.72126,-2.2748 11.0197,-5.86063 15.9177,-11.0032l-0.0531496 -0.0507874c2.85118,-3.0626 5.1626,-6.35552 6.97678,-9.81497 9.22796,-17.5961 8.66339,-41.8406 1.88858,-65.7792 -7.1563,-25.2803 -21.0591,-49.2933 -37.8733,-64.9371 -5.05985,-4.70552 -10.1847,-8.50276 -15.2244,-11.1437l-0.191339 -0.0968505zm-212.509 -132.58c-53.3115,0 -102.951,-16.3441 -167.153,-49.0288l-23.7331 -12.0827 13.8921 -22.7445c17.2973,-28.3205 12.4583,-40.2697 5.60788,-57.1878 -7.51418,-18.5492 -16.5673,-40.904 -16.5673,-78.8079 0,-54.4394 21.6898,-103.866 56.8524,-139.974 35.2264,-36.1701 84.0296,-58.9229 138.151,-59.9044l0.38504 -0.0980316 0.37441 0 0.38504 0.0980316c54.117,0.981497 102.918,23.7343 138.141,59.9044 35.1626,36.1099 56.8524,85.5355 56.8524,139.974 0,38.3906 -9.30119,60.8398 -16.9854,79.3867 -6.87166,16.5851 -11.6906,28.2177 5.6504,56.6091l14.7024 24.0732 -25.8921 11.3303c-73.8036,32.3008 -128.02,48.4524 -180.663,48.4524z"/>
   <path id="_344237704" class="fil1" d="M705.391 751.425c0,-3.6437 0.550394,-16.2106 1.07244,-28.1492 0.381496,-8.70237 0.742914,-16.9973 0.742914,-21.6957 0,-30.1547 -12.2516,-57.489 -32.0398,-77.2808 -19.7894,-19.7917 -47.1178,-32.0445 -77.2701,-32.0445l-5.83937 0c-30.1595,0 -57.4914,12.2516 -77.2796,32.0445 -19.7941,19.7917 -32.0445,47.126 -32.0445,77.2808 0,4.80237 0.369685,13.1976 0.754725,21.9579 0.522048,11.8571 1.06654,24.2504 1.06654,27.887l0 23.3162 -23.4425 1.28268c-5.1189,0.279921 -7.73623,2.11772 -8.57599,4.53898 -0.807875,2.33386 -1.03937,5.41772 -0.790158,8.89489 0.294095,4.05827 1.30158,8.28662 2.88189,12.3165 3.29055,8.40001 8.01142,15.3307 11.9941,15.3307l18.1347 0 5.40237 17.4602c6.34607,20.5016 14.4673,37.2461 23.4166,50.9256 8.7189,13.3264 18.1051,23.563 27.3024,31.4422 9.70276,8.29607 19.1599,14.0386 27.4488,18.0036 15.0992,7.22127 23.8217,8.32914 24.0898,8.32914l5.48032 0c0.193701,0 8.66339,-1.05473 23.824,-8.2819 8.35867,-3.98386 17.765,-9.65079 27.1618,-17.6788l0.0968505 -0.0968505c10.0276,-8.52166 20.2099,-19.8083 29.4886,-34.7256 8.1319,-13.0713 15.5315,-28.8862 21.4984,-48.013l5.42008 -17.3646 18.1181 0c4.02402,0 8.73308,-6.86575 11.9976,-15.202 1.57323,-4.01575 2.57599,-8.23938 2.86418,-12.3095 0.243307,-3.41811 0.00708662,-6.47008 -0.806694,-8.81457l0 -0.0980316c-0.863386,-2.48504 -3.52796,-4.37363 -8.72599,-4.65709l-23.4425 -1.28032 0 -23.3185zm48.8008 319.923c-16.9099,-6.25394 -33.4264,-11.9197 -47.3457,-16.6937 -2.60788,-0.894095 -5.10945,-1.75158 -7.77284,-2.6752 -32.8559,21.5374 -66.6863,33.3603 -101.65,33.9626 -35.2985,0.61063 -70.8083,-10.2685 -106.564,-34.1776 -2.33386,0.775985 -4.77048,1.58032 -7.35709,2.43425 -44.7603,14.7626 -135.108,44.5642 -145.781,67.2426l-0.0248032 -0.00944883c-6.19607,15.3614 -16.8709,45.3296 -24.7984,72.5044 -5.22756,17.9162 -9.09568,33.8965 -9.09568,41.517 0,7.513 3.03425,14.3055 7.94174,19.213 4.90748,4.90748 11.7,7.94174 19.2142,7.94174l288.395 0c-4.28032,16.4398 -7.99253,34.3146 -8.11182,49.3914l-280.283 0c-21.1477,0 -40.2827,-8.56182 -54.1347,-22.4126 -13.8508,-13.852 -22.4126,-32.987 -22.4126,-54.1335 0,-12.3484 4.77048,-33.1122 11.2169,-55.2142 8.54646,-29.2914 20.4036,-62.3363 27.0425,-78.5741l0.48189 -1.25197c19.7268,-41.9067 123.501,-76.1422 174.913,-93.0981 8.27363,-2.72953 15.2008,-5.01496 18.4736,-6.17717l12.2965 -4.36063 10.5673 7.83426c30.2563,22.4303 59.2867,32.6162 87.2505,32.1319 28.004,-0.483071 56.0989,-11.7319 84.2717,-32.1449l10.4929 -7.60276 12.1784 4.32284c3.08504,1.09606 10.8024,3.74292 19.2638,6.64489 27.6744,9.49253 64.5201,22.1351 97.6394,37.4103 -21.2268,7.33347 -44.2725,15.9354 -66.3071,25.9748zm1.47047 -345.95l-0.297638 6.90945c14.5016,6.50552 23.7378,18.1595 28.6595,32.2748l0.0318898 -0.0106299c0.522048,1.50354 0.987402,3.02717 1.39488,4.56615 -1.44685,3.12166 -2.74725,6.34252 -3.89764,9.65788 -4.93111,14.2075 -6.64371,29.3622 -5.56536,44.3374 0.166536,2.30788 0.396851,4.61575 0.689764,6.91772 -7.96772,14.6858 -19.8827,26.8429 -34.2461,32.6906 -6.42166,17.5193 -13.9417,32.6776 -22.0973,45.789 -12.2091,19.624 -25.8921,34.7209 -39.5209,46.3016l-0.00826772 -0.00826772c-13.3134,11.3539 -26.3729,19.252 -37.8614,24.7288 -23.9918,11.4378 -44.5193,13.1055 -45.0473,13.1055l-5.48032 0c-0.700394,0 -21.1193,-1.77638 -45.3118,-13.3476 -11.7638,-5.62559 -25.0099,-13.6252 -38.2548,-24.9473 -12.535,-10.741 -25.1528,-24.4217 -36.5611,-41.8607 -9.11339,-13.9288 -17.5288,-30.3733 -24.6071,-49.7918 -17.5441,-7.19292 -31.4693,-23.8406 -38.9729,-42.9922 -3.35315,-8.56064 -5.50985,-17.7461 -6.16063,-26.7886 -0.694489,-9.62363 0.355512,-19.3453 3.49134,-28.3795 4.89331,-14.0953 14.0847,-25.7303 28.5378,-32.2299l-0.28937 -6.66142c-0.483071,-11.002 -0.948426,-21.5469 -0.948426,-24.0792 0,-43.7882 17.7862,-83.4733 46.5166,-112.202 28.728,-28.7292 68.4083,-46.5142 112.201,-46.5142l5.83937 0c43.787,0 83.465,17.7862 112.192,46.5154 28.7268,28.7315 46.5095,68.413 46.5095,112.201 0,2.41299 -0.455906,12.8528 -0.935434,23.8181z"/>
   <path id="_344237200" class="fil1" d="M1144.54 774.697c0,-4.05 0.611811,-18.0189 1.19055,-31.291 0.422835,-9.67087 0.826772,-18.8917 0.826772,-24.1134 0,-33.5209 -13.6193,-63.9048 -35.6174,-85.9052 -21.9969,-22.0004 -52.3748,-35.6209 -85.891,-35.6209l-6.49134 0c-33.5244,0 -63.9048,13.6193 -85.904,35.6197 -22.0004,22.0004 -35.6197,52.3855 -35.6197,85.9064 0,5.33504 0.411024,14.6693 0.838583,24.4063 0.579922,13.1799 1.18701,26.9575 1.18701,30.9981l0 25.9181 -26.0587 1.42677c-5.69056,0.311811 -8.59843,2.35512 -9.53268,5.04567 -0.900001,2.59488 -1.15512,6.02126 -0.87756,9.88583 0.324803,4.513 1.44567,9.21261 3.20197,13.6925 3.65788,9.33662 8.90552,17.041 13.3323,17.041l20.1591 0 6.00473 19.4091c7.05237,22.7906 16.0819,41.4036 26.0303,56.6091 9.69095,14.8122 20.1248,26.1921 30.3473,34.95 10.787,9.22087 21.2988,15.6047 30.5138,20.0126 16.7823,8.02678 26.4792,9.25867 26.7768,9.25867l6.09213 0c0.214961,0 9.63072,-1.17165 26.4827,-9.2067 9.29174,-4.42914 19.7469,-10.728 30.1925,-19.65l0.106299 -0.10748c11.1484,-9.47363 22.4658,-22.0205 32.7803,-38.6008 9.03898,-14.5311 17.2642,-32.1118 23.8984,-53.3717l6.02363 -19.3028 20.1402 0c4.47284,0 9.70749,-7.63229 13.337,-16.8969 1.74803,-4.46457 2.86418,-9.16182 3.18425,-13.6854 0.269292,-3.79843 0.00708662,-7.19174 -0.897638,-9.79725l0 -0.10748c-0.959056,-2.76378 -3.92126,-4.8626 -9.69804,-5.17796l-26.0587 -1.42441 0 -25.9205zm164.314 413.659c-21.2221,-28.0595 -109.215,-58.2461 -162.698,-76.5922 -2.89843,-0.993308 -5.67874,-1.94646 -8.63977,-2.97284 -36.5221,23.941 -74.1272,37.0819 -112.994,37.7528 -39.2374,0.679134 -78.7099,-11.4154 -118.455,-37.9925 -2.59488,0.863386 -5.30197,1.7563 -8.17796,2.70591 -49.7552,16.4102 -150.183,49.5378 -162.049,74.7473l-0.0259843 -0.0129921c-6.88938,17.0764 -18.7559,50.3894 -27.567,80.5961 -5.81103,19.9169 -10.1102,37.6796 -10.1102,46.1492 0,8.35276 3.37323,15.9024 8.82875,21.3567 5.45433,5.45552 13.0039,8.82875 21.3567,8.82875l588.166 0c8.35631,0 15.9071,-3.37323 21.3626,-8.82757 4.46575,-4.46575 7.53544,-10.3358 8.50394,-16.8992 -7.89568,-20.5453 -13.4209,-43.5721 -18.8622,-66.2493 -5.49095,-22.8862 -10.8886,-45.378 -18.639,-62.5902zm-144.898 -128.492c61.0158,20.9291 162.158,55.6217 191.506,99.632l2.0374 3.5374c10.415,22.0618 16.741,48.4193 23.1803,75.2599 5.3126,22.1398 10.715,44.6528 18.7595,63.8268l2.14488 10.6169c0,23.5087 -9.51851,44.7803 -24.9154,60.176 -15.398,15.3957 -36.6709,24.913 -60.1808,24.913l-588.166 0c-23.5075,0 -44.7792,-9.51733 -60.1748,-24.9142 -15.3969,-15.3969 -24.9142,-36.6674 -24.9142,-60.1748 0,-13.7244 5.30315,-36.8067 12.4701,-61.376 9.49961,-32.5583 22.6795,-69.2906 30.0579,-87.339l0.536221 -1.39488c21.9284,-46.5815 137.283,-84.6355 194.433,-103.486 9.19489,-3.03307 16.8945,-5.57363 20.5335,-6.86457l13.6677 -4.84843 11.7473 8.70946c33.6331,24.9331 65.902,36.254 96.9863,35.7177 31.1303,-0.537402 62.3587,-13.0417 93.6757,-35.7331l11.6646 -8.45198 13.5354 4.80591c3.43111,1.21772 12.0095,4.16103 21.4146,7.3878zm36.4642 -314.098l-0.33189 7.6819c16.1209,7.22953 26.3858,20.1851 31.8591,35.876l0.0354331 -0.011811c3.4937,10.0559 4.66536,20.9032 3.9,31.6736 -0.712205,10.0429 -3.10158,20.25 -6.8315,29.7709 -8.33032,21.2634 -23.7969,39.7229 -43.3394,47.68 -7.13623,19.4728 -15.4973,36.3236 -24.5622,50.8985 -13.5709,21.815 -28.7823,38.5949 -43.9311,51.4689l-0.00826772 -0.0106299c-14.7992,12.6213 -29.315,21.4016 -42.0874,27.489 -26.6681,12.7146 -49.487,14.5677 -50.0741,14.5677l-6.09213 0c-0.778347,0 -23.4768,-1.97244 -50.3681,-14.8358 -13.0772,-6.25394 -27.8008,-15.1465 -42.5221,-27.7323 -13.9347,-11.9386 -27.9614,-27.1477 -40.6429,-46.5319 -10.128,-15.4831 -19.4858,-33.763 -27.3508,-55.3489 -19.5024,-7.99489 -34.9819,-26.5004 -43.3217,-47.7886 -3.72874,-9.51615 -6.12638,-19.7268 -6.84922,-29.778 -0.77126,-10.6973 0.394488,-21.5032 3.87992,-31.5461 5.43898,-15.6697 15.6579,-28.6004 31.7233,-35.8276l-0.32126 -7.40316c-0.538583,-12.2303 -1.05354,-23.9516 -1.05354,-26.765 0,-48.6756 19.7693,-92.7887 51.7052,-124.725 31.9347,-31.9359 76.043,-51.7052 124.722,-51.7052l6.49134 0c48.6733,0 92.7768,19.7705 124.709,51.7063 31.9335,31.9382 51.7028,76.0477 51.7028,124.723 0,2.67992 -0.507874,14.2843 -1.04055,26.4732z"/>
  </g>
 </g>
</svg>
