<svg width="20" height="20" viewBox="0 0 20 20" fill="none" xmlns="http://www.w3.org/2000/svg">
<path d="M3.33398 9.2487C2.91977 9.2487 2.58398 9.58449 2.58398 9.9987C2.58398 10.4129 2.91977 10.7487 3.33398 10.7487L3.33398 9.2487ZM13.8619 5.29934C13.5677 5.00776 13.0929 5.00988 12.8013 5.30407C12.5097 5.59827 12.5118 6.07314 12.806 6.36472L13.8619 5.29934ZM14.8031 7.28812L15.3311 6.75543L15.3311 6.75543L14.8031 7.28812ZM14.8031 12.7093L14.2752 12.1766L14.2752 12.1766L14.8031 12.7093ZM12.806 13.6327C12.5118 13.9243 12.5097 14.3991 12.8013 14.6933C13.0929 14.9875 13.5677 14.9896 13.8619 14.6981L12.806 13.6327ZM16.6507 9.73759L15.9068 9.83242L15.9068 9.83242L16.6507 9.73759ZM16.6507 10.2598L17.3947 10.3546L17.3947 10.3546L16.6507 10.2598ZM3.33398 10.7487L16.6673 10.7487L16.6673 9.2487L3.33398 9.2487L3.33398 10.7487ZM12.806 6.36472L14.2752 7.82081L15.3311 6.75543L13.8619 5.29934L12.806 6.36472ZM14.2752 12.1766L12.806 13.6327L13.8619 14.6981L15.3311 13.242L14.2752 12.1766ZM14.2752 7.82081C14.8735 8.41383 15.2764 8.81478 15.5477 9.15256C15.8095 9.4785 15.8863 9.6721 15.9068 9.83242L17.3947 9.64276C17.325 9.09541 17.0638 8.64488 16.7172 8.21331C16.3801 7.79357 15.9044 7.32362 15.3311 6.75543L14.2752 7.82081ZM15.3311 13.242C15.9044 12.6738 16.3801 12.2038 16.7172 11.7841C17.0638 11.3525 17.325 10.902 17.3947 10.3546L15.9068 10.165C15.8863 10.3253 15.8095 10.5189 15.5477 10.8448C15.2764 11.1826 14.8735 11.5836 14.2752 12.1766L15.3311 13.242ZM15.9068 9.83242C15.9138 9.88763 15.9173 9.94317 15.9173 9.9987H17.4173C17.4173 9.87981 17.4098 9.76093 17.3947 9.64276L15.9068 9.83242ZM15.9173 9.9987C15.9173 10.0542 15.9138 10.1098 15.9068 10.165L17.3947 10.3546C17.4098 10.2365 17.4173 10.1176 17.4173 9.9987H15.9173Z" fill="#181818"/>
</svg>
