<svg width="298" height="262" viewBox="0 0 298 262" fill="none" xmlns="http://www.w3.org/2000/svg">
<g clip-path="url(#clip0_546_1617)">
<path d="M247.507 18.2837V4.52267C247.507 2.38535 245.372 0.905663 243.369 1.66195L149.328 37.3881C138.228 33.0642 127.128 28.7237 116.028 24.3998C95.8795 16.5081 75.4852 8.63291 55.1073 0.938545C53.104 0.182262 50.9694 1.66195 50.9694 3.79927V9.1919C50.9694 11.0333 52.5786 12.5294 54.4013 12.2992C57.3898 11.9211 61.4457 12.2335 66.5525 13.2528C74.2208 14.7325 82.6282 16.9685 91.7908 20.1909C109.492 26.0439 127.194 32.3572 144.813 39.1144L83.2521 62.5099C82.0699 62.9538 81.2817 64.1047 81.2817 65.3706C81.2817 66.6366 82.0534 67.771 83.2357 68.2313L122.579 83.4228L108.228 88.8812C107.522 89.1442 106.75 89.1442 106.044 88.8812L55.1402 69.1191C53.1369 68.3464 50.9858 69.8261 50.9858 71.9634V77.5369C50.9858 79.3783 52.595 80.7593 54.4177 80.5785C57.4226 80.2825 61.4621 80.5785 66.5689 81.6143C74.2373 83.0939 82.6446 85.3299 91.8072 88.3057C92.267 88.4537 92.7104 88.5852 93.1702 88.7332C95.9452 89.6046 96.0602 93.4846 93.3508 94.5204L52.9727 109.86C51.774 110.304 51.0022 111.455 51.0022 112.721V126.728C51.0022 128.866 53.1533 130.345 55.1402 129.589L127.834 101.87C128.524 101.606 129.295 101.606 130.001 101.87C134.813 103.678 139.624 105.519 144.419 107.394L83.2521 130.658C82.0699 131.118 81.2817 132.252 81.2817 133.518C81.2817 134.784 82.0534 135.919 83.2357 136.379C96.4378 141.492 109.591 146.605 122.727 151.718L52.9562 178.254C51.774 178.698 50.9858 179.849 50.9858 181.115L50.4932 195.369C50.4932 197.506 52.6278 198.986 54.6311 198.23L149.312 162.076C160.363 166.384 171.414 170.691 182.449 174.999C202.613 182.89 222.975 190.782 243.369 198.46C245.372 199.216 247.507 197.737 247.507 195.599V190.207C247.507 188.365 245.914 186.869 244.075 187.099C241.086 187.478 237.031 187.165 231.924 186.146C224.255 184.666 215.848 182.43 206.702 179.208C189.05 173.371 171.398 167.074 153.828 160.35L215.24 136.905C216.423 136.445 217.211 135.31 217.211 134.044C217.211 132.778 216.439 131.644 215.257 131.184L175.913 115.992L190.265 110.534C190.971 110.271 191.743 110.271 192.449 110.534L243.352 129.737C245.356 130.51 247.507 129.03 247.507 126.876V121.862C247.507 120.02 245.914 118.639 244.075 118.82C241.086 119.116 237.031 118.82 231.924 117.784C224.255 116.305 215.848 114.069 206.702 111.093C206.242 110.945 205.799 110.813 205.339 110.665C202.564 109.794 202.449 105.914 205.158 104.878L245.536 89.5388C246.719 89.0784 247.507 87.944 247.507 86.6781V72.6704C247.507 70.5331 245.372 69.0534 243.352 69.8097L170.659 97.5291C169.953 97.7921 169.197 97.7921 168.491 97.5291C163.68 95.7206 158.869 93.8792 154.074 92.0049L215.24 68.741C216.423 68.2971 217.211 67.1462 217.211 65.8803C217.211 64.6143 216.439 63.4799 215.257 63.0196C202.071 57.9064 188.918 52.7933 175.765 47.6801L245.536 21.1445C246.719 20.7006 247.507 19.5497 247.507 18.2837ZM183.631 122.815C186.225 123.835 186.209 127.534 183.598 128.52L127.456 149.877L114.845 144.912C112.251 143.893 112.267 140.193 114.878 139.207L170.971 117.834C175.191 119.494 179.411 121.155 183.631 122.815ZM157.194 96.7892C159.805 97.7921 159.805 101.508 157.194 102.494L149.082 105.585L141.299 102.576C138.688 101.574 138.688 97.8579 141.299 96.855L149.411 93.7641L157.194 96.7728V96.7892ZM183.631 54.4538C186.225 55.4732 186.209 59.1724 183.598 60.1588L127.506 81.5321C123.285 79.8715 119.065 78.211 114.845 76.5505C112.251 75.5311 112.267 71.8319 114.878 70.8454L171.02 49.4887L183.631 54.4538Z" fill="white"/>
<path d="M39.0809 226.246C39.2615 226.624 39.4093 227.446 39.0481 229.271C38.7196 230.964 38.2434 232.723 37.603 234.515C35.7639 240.073 33.7278 245.597 31.5439 250.924L30.181 254.393L23.8919 237.837L28.5882 225.703H24.598L24.8114 226.213C24.9756 226.607 25.107 227.462 24.7458 229.271C24.4338 230.866 23.974 232.625 23.35 234.515C23.2351 234.894 23.1201 235.222 23.0216 235.535L19.2941 225.703H14.2202L20.5749 242.391C19.639 244.906 18.5881 247.602 17.258 250.924L15.8951 254.393L5.09037 225.933L4.99184 225.703H0L13.3827 261.035L13.4648 261.265H14.8442L21.3139 244.446L27.6029 261.018L27.685 261.248H29.0644L29.1465 261.018C31.8887 253.916 34.6309 246.863 37.3732 239.826C39.4421 234.532 41.1006 230.192 42.6113 226.196L42.7919 225.703H38.7689" fill="white"/>
<path d="M65.8138 226.329C66.7662 227.332 67.3737 230.785 67.6365 236.605V249.609C67.6365 250.382 67.5872 251.122 67.5544 251.878V252.174C67.4394 254.196 66.799 256.071 65.666 257.698C64.7136 258.751 63.5149 259.49 62.1192 259.869C60.6249 260.28 59.147 260.411 57.7349 260.28C54.8613 260.033 52.9729 258.537 51.9384 255.742C51.5936 254.805 51.3965 253.736 51.3309 252.569C51.2323 251.434 51.1831 250.349 51.1831 249.281V225.852H46.6182V249.133C46.6182 254.114 47.9646 257.649 50.6248 259.655C52.7923 261.019 55.2718 261.71 57.9648 261.71C58.326 261.71 58.6873 261.71 59.0649 261.677C60.5756 261.628 62.0863 261.398 63.4328 260.987C65.2555 260.263 66.5363 259.326 67.3245 258.109C68.1619 256.876 68.671 255.528 68.8844 254.016C69.0979 252.487 69.1964 250.974 69.1964 249.412V225.721H65.2391" fill="white"/>
<path d="M96.7663 226.345C97.4396 227.02 98.3098 229.354 98.6218 236.621V254.279L74.5165 225.852L74.4015 225.721H73.0879V261.233H77.0781L76.4541 260.608C75.5017 259.655 74.8942 256.202 74.6478 250.349V232.675L98.7532 261.102L98.8681 261.233H100.182V225.721H96.1423" fill="white"/>
<path d="M124.304 228.515C121.496 226.755 117.966 225.818 113.811 225.703H104.123V261.265H114.681C119.821 261.265 124.074 259.785 127.309 256.859C130.56 253.916 132.35 249.477 132.613 243.64C132.711 240.632 132.071 237.853 130.659 235.157C129.23 232.46 127.095 230.224 124.32 228.482M124.008 232.608C126.258 235.847 127.407 239.398 127.522 243.509C127.67 247.866 126.734 251.581 124.632 254.853C122.596 258.042 119.361 259.719 115.059 259.818H108.688V227.166H114.09C118.491 227.627 121.824 229.452 124.025 232.608" fill="white"/>
<path d="M136.061 261.281H158.278V257.319L157.671 257.845C156.932 258.486 155.355 258.98 153.254 259.21C150.823 259.539 148.525 259.719 146.259 259.769H145.536C143.467 259.835 141.825 259.867 140.61 259.818V241.059H153.401V239.661H140.61V227.166C141.792 227.117 143.418 227.166 145.454 227.199H146.242C148.36 227.265 150.511 227.413 153.237 227.725C155.963 228.103 157.145 228.695 157.654 229.139L158.262 229.665V225.703H136.045" fill="white"/>
<path d="M185.65 257.714C184.632 256.136 184.057 254.524 183.893 252.93C183.729 252.108 183.564 251.384 183.302 250.71C182.907 249.526 181.972 248.425 180.559 247.521C179.673 246.945 178.589 246.534 177.324 246.337C177.965 246.156 178.622 245.942 179.295 245.679C181.233 244.956 182.858 243.871 184.254 242.375C185.715 240.813 186.471 238.642 186.52 235.897C186.471 233.464 185.748 231.507 184.303 229.896C182.809 228.301 180.921 227.15 178.638 226.476C177.095 226.082 175.223 225.835 173.072 225.736H162.201V261.298H166.766V249.707C167.439 249.378 168.474 248.951 170.001 248.375C171.38 247.849 172.809 247.57 174.369 247.521C175.256 247.521 176.06 247.784 176.783 248.326C177.505 248.902 178.08 249.888 178.523 251.236C178.622 251.664 178.737 252.075 178.852 252.469C178.917 252.699 178.983 252.913 179.032 253.11C179.623 255.626 180.313 257.517 181.101 258.717C181.742 259.736 182.76 260.443 184.205 260.838C185.371 261.167 186.98 261.331 189.016 261.331C189.295 261.331 189.591 261.331 189.903 261.331H190.247V259.884H189.903C188.014 259.769 186.619 259.079 185.633 257.747M166.766 227.167H170.247C173.416 227.002 176.044 227.479 178.293 228.581C180.494 229.699 181.676 231.967 181.922 235.469C181.972 238.725 181.282 240.977 179.82 242.358C178.277 243.805 176.159 244.923 173.334 245.811C171.397 246.452 169.508 247.159 167.505 247.899L166.783 248.162V227.167H166.766Z" fill="white"/>
<path d="M221.184 225.721H215.322L215.437 226.181C215.732 227.348 215.059 229.716 210.248 234.484C207.407 237.377 204.468 240.254 201.561 243.033L198.754 245.713V225.721H194.205V261.282H198.754V247.538L203.483 242.951L216.997 261.266H222.202L206.488 239.991" fill="white"/>
<path d="M230.332 225.721H225.767V261.282H230.332V225.721Z" fill="white"/>
<path d="M257.918 226.345C258.591 227.02 259.461 229.354 259.773 236.621V254.279L235.668 225.852L235.553 225.721H234.256V261.233H238.246L237.622 260.608C236.686 259.655 236.062 256.202 235.816 250.349V232.675L259.921 261.102L260.036 261.233H261.35V225.721H257.31" fill="white"/>
<path d="M265.273 225.721V229.634L265.848 229.173C266.521 228.647 268.049 227.957 271.513 227.644C274.206 227.398 276.833 227.25 279.346 227.184V261.282H283.911V227.184C286.423 227.233 289.018 227.398 291.793 227.644C294.469 227.891 296.472 228.433 297.408 229.173L298 229.634V225.721" fill="white"/>
</g>
<defs>
<clipPath id="clip0_546_1617">
<rect width="298" height="261" fill="white" transform="translate(0 0.742188)"/>
</clipPath>
</defs>
</svg>
